<svg xmlns="http://www.w3.org/2000/svg" viewBox="0 0 192 192" width="192" height="192">
  <rect width="192" height="192" fill="#1976d2"/>
  <g transform="translate(48, 64)">
    <!-- Truck icon centered and scaled -->
    <path fill="#ffffff" d="M88 16H8c-4.4 0-8 3.6-8 8v48c0 4.4 3.6 8 8 8h8.7c-.5 1.6-.7 3.3-.7 5 0 8.8 7.2 16 16 16s16-7.2 16-16c0-1.7-.2-3.4-.7-5h16.3c-.5 1.6-.7 3.3-.7 5 0 8.8 7.2 16 16 16s16-7.2 16-16c0-1.7-.2-3.4-.7-5H96V24c0-4.4-3.6-8-8-8zM32 93c-4.4 0-8-3.6-8-8s3.6-8 8-8 8 3.6 8 8-3.6 8-8 8zm48 0c-4.4 0-8-3.6-8-8s3.6-8 8-8 8 3.6 8 8-3.6 8-8 8zM88 64H8V24h80v40z"/>
  </g>
  <text x="96" y="170" font-family="Arial, sans-serif" font-size="20" font-weight="bold" fill="#ffffff" text-anchor="middle">SV-TMS</text>
</svg>
